<svg width="14" height="16" viewBox="0 0 14 16" fill="none" xmlns="http://www.w3.org/2000/svg">
<path d="M13.5433 8.38058C13.8373 7.99208 14 7.51608 14 7.02083C14 6.23508 13.5608 5.49133 12.8538 5.07658C12.6717 4.96982 12.4645 4.91363 12.2535 4.91383H8.057L8.162 2.76308C8.1865 2.24333 8.00275 1.74983 7.64575 1.37358C7.47055 1.18812 7.25918 1.04057 7.0247 0.94004C6.79022 0.839506 6.53762 0.788126 6.2825 0.789075C5.3725 0.789075 4.5675 1.40158 4.326 2.27833L2.82275 7.72083H2.8175V15.2108H11.0827C11.2437 15.2108 11.4012 15.1793 11.5465 15.1163C12.3795 14.7611 12.9167 13.9473 12.9167 13.0443C12.9167 12.8238 12.8853 12.6068 12.8223 12.3968C13.1163 12.0083 13.279 11.5323 13.279 11.0371C13.279 10.8166 13.2475 10.5996 13.1845 10.3896C13.4785 10.0011 13.6413 9.52508 13.6413 9.02983C13.6378 8.80933 13.6063 8.59058 13.5433 8.38058ZM0 8.28083V14.6508C0 14.9606 0.25025 15.2108 0.56 15.2108H1.6975V7.72083H0.56C0.25025 7.72083 0 7.97108 0 8.28083Z" fill="white"/>
</svg>
